<svg xmlns="http://www.w3.org/2000/svg" width="383" height="456.5" viewBox="0 0 383 456.5">
  <g id="katman_2" data-name="katman 2">
    <g id="katman_1-2" data-name="katman 1">
      <g>
        <path d="M320.3,333.3c2.6-11.2,10-20.2,14.6-30.4,2.7-6,5.6-7.3,10.9-2.4s9.9,7.1,16.8,5.7c13.3-2.5,22.6-18.9,19.9-33.9s-15.6-20.9-25.6-29c-5.3-4.2-8.4-7.4-8.3-14.7.4-15-2.9-29.5-15.7-39.2-6.9-5.1-7.5-10.4-5.9-18.2,4.5-23.7,0-45.6-17.9-62.8-16-15.4-34.6-26-57.6-27.9-16.1-1.4-30.2-8.2-40.3-21.1s-23-17.1-37.8-19.5-27,.8-40.2,4.8c-34,10.2-57.9,30.2-64.6,66.6C66,125.9,60,139,54,152.3c-12.8,28-17.6,60.5,10,85.9,16.2,15,45.3,22.9,62.7.5,3.4-4.3,6.9-4.7,11.8-3.5,6.5,1.5,12.9,4,19.7,3.8-2.1,4.6-4.8,9-3,14.6,1,2.9-1.2,4.7-3.4,6.3-16.4,11.4-20,27-15.4,45.5A22.8,22.8,0,0,0,155,323c2.7.5,5.9-.6,8.7,2.4-1.1,11.8-5.4,23.6-5.4,36-.1,10.5-.1,26.3,4.7,38.3-2.9-.6-6.3.3-9.7,1.4-5,1.5-10.5,4.7-15.1,2.7-15.2-6.7-22.8.9-28.6,13.3-.8,1.7-2.6,2.9-3.8,4.5-3.3,4.7-9.8,6.2-12.5,12.5,2.3,1.6,4.2,4.1,6.4,4.4,8.9,1.1,17.9,3.1,26.9-.4s16.2-5.2,25.4-4.4,18.4,1.1,25-7.3c5.4,5.6,10.7,10.5,15.4,15.7,21.2,23.5,54.7,16.1,69.2-6.8,4-6.3,7.5-11.1,15.9-7.8.9.4,4.7.3,8-.4,4.8,14.8,15.8,19.2,30.6,21.1s26.2-4.2,38-12.1c27.7-18.4,31.8-55.2,15-81.1C357.9,337.7,338.8,335.8,320.3,333.3Z"/>
        <g>
          <path d="M125.6,324.2c6.5-17.4,2.9-38.7-9.8-50.4a23.1,23.1,0,0,0-35.9,5.5c-3.9,6.6-4.9,13.8-5,22.1-6.8-3-10.1-8.3-14.5-12.4-6.3-5.9-13.6-8.5-22.1-6.6-17.2,3.8-27.1,23.8-20.2,41.5A72.8,72.8,0,0,0,40.6,354c13.5,10.9,28.8,19.6,38.9,34.6,3.5,5.2,8.6,4,12.2-2.3s8.2-15.4,12.8-22.8C112.2,350.8,120.4,338.4,125.6,324.2Z"/>
          <path d="M266.9,67.6c3.4,6.2,8.1,5.8,12.5.8,6.5-7.3,13.2-14.4,19.3-22s11.5-17.3,10.2-28.5S299.2-.6,289.3,0c-6.7.5-9.5,6.3-14.9,10.5-1.6-1.5-2.7-2.6-3.9-3.6-12-9.9-24.9-6-29.4,9-3.8,12.5,2.5,22.1,9.8,31C256.5,53.6,262.7,59.8,266.9,67.6Z"/>
          <path d="M23.4,99.7l1.8,1.4,3.7,2.7a36.3,36.3,0,0,1,4.9,4.7c6.7,7.5,10,7.1,15.1-1.7l10.6-18c2.7-4.7,6.1-8.9,7.8-14.2,2.9-9.3,1.9-19.9-4-27.9-7.6-10.5-20-10.3-27.3.4-1.3,2-1.6,5.1-5.1,5.6C24.4,47.1,17,44.8,8.8,49.1S.2,60.1,0,67.4,3.6,81.1,8.7,86.3c2.5,2.5,5.1,4.9,7.8,7.3A81.2,81.2,0,0,0,23.4,99.7Z"/>
          <g>
            <path d="M324.7,225.6c-3.4,3.4-1.5,6.2.9,9.3s6,5.8,5,12.1c-6.7-6.9-10.5-1.7-14.6,1.9a9.2,9.2,0,0,0-2.8,10.6c2.5,7.3,8.9.7,12.9,3.9-2.6,2.9-6.1,4.9-7.8,8.4s-2.4,6.4.8,8.8,5.9.9,8.1-2.1,2.1-4.4,5.5-2.8c-.6,5.4-10.2,9.7-3.1,15.8s8.8-2.7,14.1-5a56.3,56.3,0,0,0,4.2,7c5.6,7.2,16.3,8.2,22.3,2.3a26,26,0,0,0-2.9-39.2c-6.7-5-12-12-20.5-14.4-2.8-.8-1.9-3.6-2.1-5.8-.3-6.2-2.9-11.2-8.8-14S327.8,222.6,324.7,225.6Z" style="fill: #f4efef"/>
            <path d="M128.8,196.1c-2.9-9.5-7.7-17.5-13.9-25.2-4-4.9-9-9.7-10.8-18.2,30,37.9,32.8,40.7,27.4,74.8,4.8,2.7,6.6,1.7,11.9,3.1s11.1,1.5,17.2,4.8c3.4-.8,4.9,2,8.1.8,7.1-2.6,11.9-14.2,7-16.6-10.1-5-20.5-9.3-29.1-17-1.2-1.1-3.6,2.4-4.9-.6.7-3.8,1.5-7.6,6.2-9.5,4.9,17.5,21.7,18.6,34.9,25.4l2.6-1.8c16.6-10.7,33.1-13.7,50.2-.5,7,5.4,21.6.1,25.3-8.6,5.6-13.3,12.1-25.1,28.6-26.9,10.1-1,13.5-8.1,13.5-17.5,2.7.4,4.1,2,5.7,4.7-4.4,2.1-6.6,5.6-5.5,11.2l16.3,2c5.2-14.1,4.1-28,1.1-42.2-5.3-25.2-46.5-49.9-66.3-50.7a78.8,78.8,0,0,1-21.7-4.3c-12.2-4.2-20.5-13.3-29.8-21.4-14.3-12.4-31.3-17.6-50-14.8s-36.4,9.3-52.1,21.2a70,70,0,0,0-27.9,46c-2,12.3-4.3,24.4-9.6,35.4s-7.9,21.7-10.4,33.2C47.9,205,59,225.4,78.1,237.3c13,8.1,28.6,7.6,39.1-.9S133,209.5,128.8,196.1Zm133.7-55.7c2.8.9,6.5,2.2,8.5,5.9a11.6,11.6,0,0,1,1.1,5.3c-.5,6.5-6.6,8.6-11.8,10s-10.3.6-15.5-.7c-8.8-2.2-10.8-7.7-5.3-14.8a19.9,19.9,0,0,1,4.6-4.2C252.1,137.1,261.2,140,262.5,140.4Zm-16.2-26.2-.2,2.1c-11.3,1.5-25.4-1.4-33.6-8.1ZM162,119.7c8.3-7.4,19.4-7.1,28.9-11.2C183.8,119.4,172.4,118.2,162,119.7Zm2.9-63c-7.7-4-13.8-2.2-18.7,4.7C150.9,49.4,155.9,48.1,164.9,56.7ZM109.1,232.8c-14.5,6.3-31.1.7-39.3-13.9-10.7-19-14.2-39.2-5.2-60.2.6-1.5,1-3.1,3.3-4.1,1.6,4.5-3.4,8.2-1.2,13.6a40.9,40.9,0,0,0,7.2-15.5c.8-3.8,2.6-6.2,6.2-7.4a.4.4,0,0,1,.1-.3l.2.2h-.3c-4.3,12.7-10.6,25.2-10.3,38.9.2,10.3-3,21.3,4.2,31,2.8-20.6-6.1-43.5,13-61.1,7.6,6.1,3.3,16.8,8.4,25.1,3.8-5.8-1.9-12.2,3.8-18.1,4.1,11.1,13.2,18.7,16.7,29.6,2.7,8.4,2.8,17.3,4.5,25.9S116,229.8,109.1,232.8Z" style="fill: #f4efef"/>
            <path d="M163.8,412c1.3-6-2-8.3-8-6.2-8.7,3-17.6,4-26.8,2-2.9-.6-6.1-.4-7.9,2.4-4.6,7.4-11.8,12.7-17.5,20.6,11.7,2.8,62.3-4,67.5-9.1C165.4,420.7,162.5,418.3,163.8,412Z" style="fill: #f4efef"/>
            <path d="M254.3,224.5c3-1.5,5.4-4.2,3.9-8.9l-4.9,1.8-5.7,2.7C249.5,223.8,251.6,225.9,254.3,224.5Z" style="fill: #f4efef"/>
            <path d="M261.6,141.2c-3.6-.2-7.5-1.2-9.9,2.9C255,143.3,260.4,148.9,261.6,141.2Z" style="fill: #f4efef"/>
            <path d="M286.7,187.3c-7.7,1.9-13.2,5.5-16.7,13.2s-3.8,13.6-4.9,20.6c-1.7,10.2-8.1,14.8-15.3,10.5s-14.5-6.8-20.8-12.2-15.2-8.6-23.6-6.3-16.6,6.3-22.6,14.2.3,13.9-.6,21.1c12.5-5.3,20.3-3.4,22.7,6.3s-2.1,19.7,1.9,29.2a2,2,0,0,1,.2,1.1,1.8,1.8,0,0,1-.4.9c-4.7,7.9-6.1,16.3-2.9,25.2s9.1,14.9,17.2,17.5a22.3,22.3,0,0,0,4.3,1c14.1,1.8,24.8,8.1,34.6,17.7s20.3,7.5,30.8,10.2c3,.8,4.1-2.5,5.9-4.3,12.3-12.2,16-29.4,25.3-43.4,6.4-9.6,4.5-15.3-4.8-22.6-3.7-2.9-5.8-6.8-5.1-10.9s-.7-9-3-12.8-2.9-10.5,0-14.8,5.6-7.3,7.5-11.4,1-7,1.6-11,4.1-7.3,8.1-8.5,8.2-.7,12.2.5a38.4,38.4,0,0,0-3.3-12.9C327.7,189.4,304.2,183,286.7,187.3Z" style="fill: #e01c12"/>
            <path d="M212.9,331.2l-16.3-13.8C203.9,329.7,206,331.2,212.9,331.2Z" style="fill: #f4efef"/>
            <path d="M180.9,321.9a4.2,4.2,0,0,0-4.4-4.4,6.9,6.9,0,0,0-6.6,6.1c-2.8,20.8-9,41.4-3.5,62.7a40.9,40.9,0,0,1,.3,15.2,10.2,10.2,0,0,1,3.2,4.9c.3.7,2.3.7,4.2,1.3.7-23.5,5.2-45.3,21-64C187.2,338.2,181.2,331.9,180.9,321.9Z" style="fill: #f4efef"/>
            <path d="M198,274.5c-2.9-2-7.3,2.5-9.4-2.3,10.6-4.6,14.7-9.9,11.6-15.4-1.7-3-4-7.1-7.4-7.3-7.1-.6-11.4,6-16.9,9.4-2.4-3.7-1.3-6.9-.5-10,1.1-5,1.4-9.4-5.4-9.6s-8.9,2.9-9.2,8.9c-.3,4.4,2.7,7.9,3.7,14.2-16.4,2.8-26.2,12.1-25,28.9.7,10.2,3.2,21.2,15.9,23.8s22.3-2,27.4-14.6c5.2.9,11,4.1,12.6-3.5-.4-4.1-6.6-3.8-5.8-8.5C202.5,286.4,203.3,285,198,274.5Z" style="fill: #f4efef"/>
            <path d="M232,340.1c-7.7-2.2-16.7-5.2-23.4.3-11.3,9.2-20.7,20-24.8,34.7-8.6,30.6-2.5,48.1,23.8,65.7,1.3.9,4,2.2,4.1,2,4.8-6.8,6.5,2.1,10,2.3,1.6.1,4.1,2.4,6.8,2.2,19.6-1,40.9-23.4,40.2-44.8a107.5,107.5,0,0,0-10.3-38.7C252.5,351.8,244.5,343.6,232,340.1Zm-39.5,37.4c.7,14-.2,27.9,3.7,42.5C187.5,404.9,188.1,391,192.5,377.5Zm24.8,55.6c-10.8-9.8-10.8-20.6-11.3-31.2-.9-16.6-.3-33.3,3.1-49.9-1.2,27.2.3,54.4,8.4,81.4Zm10.5-8a192.4,192.4,0,0,1-1.6-30.3c.7-15.8-1.9-31.8-3.2-47.7,11.5,30.2-1.8,59.9,14.6,90.8C228,434.5,228.3,429.5,227.8,425.1Zm20.8,3.1c-.1-23-3.3-45.1-7.4-66.9C248.3,382.3,252.2,404.2,248.6,428.2Z" style="fill: #f4efef"/>
            <path d="M289.3,366.9c-7.1-6.2-15.6-6-25-7.7,4.9,14,8.7,26.9,9.4,40.4.2,2.6.7,5.4,0,7.8-1.8,6.2,3.6,11.4,10.4,14.4a59.7,59.7,0,0,1-1.1-9.1c-.8-12.8-.6-25.3,4.2-37.3C288.3,372.7,288.6,369.8,289.3,366.9Z" style="fill: #f4efef"/>
            <path d="M355.7,351c-4.4-3.8-8.8-1.5-12.6-4.3-13.5-10-22.2-9.4-34.1,2.6-15.3,15.3-22.1,33.9-19.5,56.6-.1,29.2,22.4,37,41.6,33.3,11.2-2.2,20.3-7.7,28.3-16C376.8,405.6,374.6,367.3,355.7,351Zm-46.4,64.3c-2.4-11.7.2-33.7,5.4-41C313.1,388.9,309.2,401.8,309.3,415.3Zm8,14.3c7.8-25.7,11.6-51.3,14.2-76.9C332.8,378.2,330,403.9,317.3,429.6Zm19-1.4c5.1-22.4,7-44.7,7.9-66.9C346.4,383.4,345.2,405.6,336.3,428.2Zm16.5-13c3.2-13.1,2.3-26.6,4.1-41.2C360.2,382.4,357.8,404.3,352.8,415.2Z" style="fill: #f4efef"/>
          </g>
        </g>
        <path d="M89,377.7c-1.1,2-2,4.1-5.3,5.2-8.3-11.5-19.1-19.7-30.4-27.3a86.3,86.3,0,0,1-23.7-24.1c-5.3-7.7-6.7-16-5.3-25,1.1-6.9,2.7-13.2,10.3-16.2s15.3-.7,21.6,4.3S65.9,304,71,308.5s9.9,3.7,11.1-4c.6-3.8-.2-7.8.3-11.7.9-7.7,3.3-15,11.6-17.5s17.3,1.7,21.9,8.9c7.4,11.5,8.2,24,3.9,36.4s-8.3,22.4-16.4,31.8C97,359.8,93.8,369.3,89,377.7Z" style="fill: #e01c12"/>
        <path d="M247.9,17.9c1.3-3.8,2.6-7.5,7.1-8.4a11.4,11.4,0,0,1,11.3,4c3.4,3.8,5.1,9.1,10.4,11.1,4.1-1.1,4.3-4.6,5.1-7.7,1.3-5,3.3-9.5,9.4-9.4s9.2,5.1,10.5,10.9-2.1,13-5.6,18.7-10.3,12.3-15.5,18.6c-.5.7-6.6,7.9-6.9,7.6-7.4-9.2-15-17.9-21.9-27.1C247.8,31,245.8,24.8,247.9,17.9Z" style="fill: #e01c12"/>
        <path d="M7.8,71.9C5.8,66,6.4,60,11.7,56s10.4-.9,14.7,2.9c1.5,1.3,2.7,2.9,4.2,4.1,5.9,4.8,8.1,4,9.4-3.5.3-1.9.2-3.9.8-5.7,1.3-3.9,3.4-7.1,8-7.5s7.4,1.8,9.6,5.4c4.2,6.7,3.6,13.6,1.4,20.7-3.9,12.3-12.9,21.5-18.1,34.2-7.4-8.1-14.9-13.7-22.4-19.2A31.8,31.8,0,0,1,7.8,71.9Z" style="fill: #e01c12"/>
      </g>
    </g>
  </g>
</svg>
